<?xml version="1.0" standalone="no"?>
<!DOCTYPE svg PUBLIC "-//W3C//DTD SVG 20010904//EN"
 "http://www.w3.org/TR/2001/REC-SVG-20010904/DTD/svg10.dtd">
<svg version="1.0" xmlns="http://www.w3.org/2000/svg"
 width="400.000000pt" height="600.000000pt" viewBox="0 0 400.000000 600.000000"
 preserveAspectRatio="xMidYMid meet">

<g transform="translate(0.000000,600.000000) scale(0.100000,-0.100000)"
fill="#000000" stroke="none">
<path d="M1984 3512 c-19 -11 -3 -126 17 -130 13 -2 17 9 22 60 4 43 2 65 -6
70 -15 10 -19 10 -33 0z"/>
<path d="M1630 3355 c-10 -13 -5 -22 31 -55 24 -21 49 -39 56 -40 26 0 24 23
-6 54 -17 18 -31 37 -31 44 0 17 -35 15 -50 -3z"/>
<path d="M1869 3347 c-99 -42 -157 -95 -206 -190 -20 -40 -27 -71 -31 -135
l-5 -83 36 3 c34 2 34 3 30 39 -6 43 21 142 49 182 11 15 18 30 15 33 -8 9
-51 -68 -63 -116 -8 -29 -13 -36 -13 -20 -1 30 28 93 63 139 26 35 111 101
130 101 5 0 -10 -13 -35 -28 -24 -16 -53 -40 -64 -53 -16 -19 -13 -18 15 5 43
35 126 75 160 77 23 1 23 2 -5 10 -52 14 75 -2 135 -17 30 -8 75 -28 100 -46
35 -24 41 -26 25 -8 -11 13 -42 33 -70 46 -27 13 -44 24 -37 24 19 0 72 -29
115 -63 35 -27 97 -119 96 -142 0 -5 -10 10 -23 35 -13 25 -34 54 -46 65 -17
15 -14 8 9 -24 37 -53 61 -127 61 -193 0 -46 1 -48 29 -48 24 0 31 5 36 29 8
37 -9 129 -34 187 -28 62 -110 145 -178 179 -48 24 -73 29 -148 32 -77 3 -98
0 -146 -20z m144 -24 c-7 -2 -19 -2 -25 0 -7 3 -2 5 12 5 14 0 19 -2 13 -5z
m60 -10 c-7 -2 -19 -2 -25 0 -7 3 -2 5 12 5 14 0 19 -2 13 -5z m256 -317 c1
-70 -5 -53 -12 29 -3 41 -2 60 3 45 4 -14 8 -47 9 -74z m-652 -18 c-2 -13 -4
-5 -4 17 -1 22 1 32 4 23 2 -10 2 -28 0 -40z"/>
<path d="M2291 3329 c-32 -37 -33 -41 -18 -56 15 -15 19 -14 56 18 43 37 51
73 16 76 -12 1 -33 -13 -54 -38z"/>
<path d="M1976 3229 c-7 -78 -4 -89 25 -89 27 0 32 20 24 95 -5 53 -10 65 -24
65 -15 0 -19 -12 -25 -71z"/>
<path d="M1790 3205 c-11 -13 -5 -24 31 -64 24 -27 52 -49 62 -50 10 -1 16 3
12 8 -3 5 0 13 6 16 7 5 -3 22 -28 47 -51 53 -68 61 -83 43z m95 -65 c10 -11
16 -20 13 -20 -3 0 -13 9 -23 20 -10 11 -16 20 -13 20 3 0 13 -9 23 -20z"/>
<path d="M2138 3171 c-36 -33 -49 -53 -45 -65 7 -18 42 -22 53 -4 5 7 3 8 -7
3 -8 -5 8 12 35 36 35 32 48 50 43 62 -10 26 -25 21 -79 -32z"/>
<path d="M1973 3113 c-9 -23 6 -45 29 -41 33 4 32 51 0 53 -13 1 -26 -4 -29
-12z"/>
<path d="M1904 3077 c1 -27 5 -32 26 -32 19 0 25 5 25 23 0 12 -4 22 -10 23
-5 1 -17 5 -26 10 -13 7 -16 2 -15 -24z"/>
<path d="M2042 3081 c-3 -8 0 -17 6 -19 7 -2 9 -8 6 -14 -4 -6 4 -8 17 -6 34
4 34 51 1 53 -13 1 -26 -5 -30 -14z"/>
<path d="M1960 3040 c-25 -25 -26 -62 -2 -83 18 -17 146 -21 135 -4 -3 5 -13
7 -23 4 -16 -4 -18 0 -13 29 10 63 -53 98 -97 54z m64 -6 c9 -3 16 -10 16 -16
0 -5 -6 -6 -12 -1 -16 10 -54 16 -45 7 3 -4 1 -16 -4 -27 -8 -15 -8 -22 2 -28
19 -12 25 -11 43 7 9 8 16 11 16 5 0 -6 -9 -15 -20 -21 -27 -15 -60 4 -60 33
0 38 27 55 64 41z"/>
<path d="M1490 3025 c-15 -18 -2 -51 19 -49 6 1 31 2 56 3 41 1 45 3 45 26 0
22 -4 25 -39 25 -22 0 -46 2 -54 5 -7 3 -20 -1 -27 -10z"/>
<path d="M1713 3024 c-7 -3 -13 -14 -13 -25 0 -20 -4 -19 133 -23 17 -1 22 5
22 24 0 24 -3 25 -65 27 -36 1 -71 -1 -77 -3z"/>
<path d="M1879 3023 c-1 -2 -2 -13 -2 -25 -1 -18 4 -23 23 -23 20 0 25 5 25
24 0 18 -6 25 -22 26 -13 1 -23 0 -24 -2z"/>
<path d="M2073 3013 c-9 -23 6 -45 29 -41 33 4 32 51 0 53 -13 1 -26 -4 -29
-12z"/>
<path d="M2144 3016 c-13 -34 3 -46 65 -46 72 0 91 6 91 31 0 15 -7 19 -37 19
-21 0 -55 3 -75 6 -29 5 -39 3 -44 -10z m33 -32 c-3 -3 -12 -4 -19 -1 -8 3 -5
6 6 6 11 1 17 -2 13 -5z"/>
<path d="M2438 3023 c-39 -3 -48 -8 -48 -22 0 -23 19 -31 76 -31 43 0 45 1 42
27 -3 30 -5 31 -70 26z"/>
<path d="M1920 2950 c0 -5 5 -10 10 -10 6 0 10 5 10 10 0 6 -4 10 -10 10 -5 0
-10 -4 -10 -10z"/>
<path d="M1555 2913 c4 -10 16 -53 28 -95 l22 -78 395 0 395 0 30 95 30 95
-453 0 c-428 0 -454 -1 -447 -17z"/>
<path d="M1410 2891 c0 -17 19 -52 43 -78 l20 -22 -36 -36 c-19 -19 -32 -37
-28 -40 4 -2 34 -8 67 -13 75 -12 164 -5 164 14 0 9 -11 14 -30 14 -26 0 -30
4 -30 28 0 16 -7 52 -15 80 l-16 52 -47 0 c-26 0 -57 3 -69 6 -15 4 -23 2 -23
-5z"/>
<path d="M2508 2893 l-58 -4 -15 -51 c-8 -29 -15 -64 -15 -80 0 -24 -4 -28
-30 -28 -20 0 -30 -5 -30 -15 0 -11 12 -16 43 -17 65 -3 149 3 173 12 22 9 22
9 -12 46 l-35 37 25 26 c29 31 45 82 25 79 -8 -1 -40 -3 -71 -5z"/>
<path d="M1661 2689 c-38 -32 -43 -40 -32 -53 15 -18 51 -21 51 -5 0 6 15 28
33 49 l34 37 39 -29 c60 -43 164 -72 238 -65 77 6 161 38 206 77 l35 30 -60
-4 c-33 -2 -78 -11 -100 -20 -57 -22 -154 -20 -217 4 -66 25 -73 25 -28 0 19
-11 31 -19 25 -20 -5 0 -25 9 -43 20 -22 14 -48 20 -85 19 -45 -1 -58 -7 -96
-40z m479 11 c-19 -11 -42 -19 -50 -19 -8 0 3 8 25 18 52 25 70 26 25 1z m-75
-25 c6 -2 -21 -3 -60 -4 -38 0 -79 4 -90 8 -19 8 128 3 150 -4z"/>
<path d="M1980 2715 c0 -8 9 -15 20 -15 11 0 20 7 20 15 0 8 -9 15 -20 15 -11
0 -20 -7 -20 -15z"/>
<path d="M2274 2715 c-7 -18 53 -90 74 -90 8 0 20 8 26 17 8 14 3 23 -29 52
-44 38 -63 44 -71 21z"/>
<path d="M1980 2573 c0 -21 -3 -48 -6 -60 -4 -16 0 -23 16 -28 32 -10 38 3 33
68 -5 47 -9 57 -24 57 -15 0 -19 -8 -19 -37z"/>
</g>
</svg>
