<?xml version="1.0" standalone="no"?>
<!DOCTYPE svg PUBLIC "-//W3C//DTD SVG 20010904//EN"
 "http://www.w3.org/TR/2001/REC-SVG-20010904/DTD/svg10.dtd">
<svg version="1.0" xmlns="http://www.w3.org/2000/svg"
 width="400.000000pt"  height="600.000000pt" viewBox="0 0 400.000000 600.000000"
 preserveAspectRatio="xMidYMid meet">

<g transform="translate(0.000000,600.000000) scale(0.100000,-0.100000)"
fill="#FFFFFF" stroke="none">
<path d="M1705 4490 c-49 -11 -116 -29 -150 -41 -93 -34 -294 -139 -305 -159
-7 -13 -32 -20 -106 -30 -119 -16 -139 -30 -131 -97 2 -24 13 -53 23 -64 17
-19 26 -20 107 -14 60 5 96 4 111 -4 11 -6 52 -17 90 -24 l70 -12 -65 -33
c-36 -18 -88 -51 -117 -72 l-52 -40 -118 0 c-78 0 -122 -4 -130 -12 -8 -8 -12
-49 -12 -121 l0 -108 63 -30 63 -29 -27 -153 c-16 -83 -31 -184 -35 -223 l-6
-70 -65 -11 c-86 -15 -140 -51 -149 -98 -9 -47 2 -127 36 -265 25 -99 29 -140
33 -300 7 -275 43 -388 157 -493 134 -123 453 -335 549 -365 48 -15 100 -17
361 -17 355 0 339 -3 522 112 269 169 419 296 464 390 43 92 64 217 69 413 4
147 9 191 30 275 35 134 44 245 21 279 -21 33 -64 55 -139 70 l-61 13 -12 94
c-7 52 -22 146 -33 209 -12 63 -21 120 -21 127 0 7 27 26 60 43 l60 30 0 114
c0 95 -3 115 -16 120 -9 3 -67 6 -131 6 l-115 0 -41 36 c-23 19 -76 52 -117
72 l-74 37 79 14 c44 7 83 19 87 25 5 9 31 9 99 2 l92 -9 24 27 c34 40 31 116
-6 136 -10 5 -57 14 -105 20 -67 9 -92 17 -109 34 -63 63 -298 164 -454 195
-125 26 -248 26 -368 1z m440 -64 c50 -15 146 -55 215 -89 l125 -62 3 -81 3
-82 -122 -18 c-76 -12 -123 -24 -127 -32 -2 -7 10 -45 28 -83 18 -39 29 -73
26 -76 -11 -11 -816 -17 -816 -6 0 6 15 44 34 86 26 56 32 78 23 85 -7 5 -65
17 -130 27 l-118 18 3 80 3 81 70 38 c93 50 253 113 340 132 111 25 325 16
440 -18z m-907 -281 c-10 -10 -159 -20 -168 -11 -8 8 -15 65 -7 67 1 0 40 6
87 12 l85 12 3 -39 c2 -21 2 -39 0 -41z m1460 60 c18 -4 22 -12 22 -40 0 -35
0 -35 -44 -35 -24 0 -64 3 -90 6 l-46 7 0 42 0 42 68 -9 c37 -5 77 -11 90 -13z
m-1230 -203 c-1 -4 -11 -28 -22 -55 l-19 -47 -83 0 c-46 0 -84 2 -84 5 0 12
178 103 203 105 5 0 7 -3 5 -8z m935 -27 c40 -19 86 -46 102 -59 l30 -25 -85
-1 -86 0 -27 55 c-15 31 -27 58 -27 60 0 11 24 3 93 -30z m407 -158 l0 -33
-251 -47 c-138 -25 -253 -48 -255 -49 -1 -2 -10 -64 -19 -137 -13 -105 -14
-135 -4 -141 12 -8 19 -6 208 79 63 28 115 50 117 48 1 -1 -1 -60 -6 -129 -11
-158 -41 -285 -83 -360 -64 -114 -268 -322 -534 -543 l-93 -77 -127 108 c-165
139 -391 361 -454 444 -81 108 -117 230 -126 438 l-6 122 34 -14 c19 -8 88
-39 154 -69 120 -54 145 -59 145 -28 0 30 -29 254 -34 258 -2 3 -117 25 -255
51 l-251 46 0 33 0 33 920 0 920 0 0 -33z m-1592 -126 c117 -21 215 -40 217
-42 4 -5 24 -173 20 -177 -1 -2 -111 46 -244 105 -228 102 -241 109 -241 134
0 21 4 26 18 23 9 -2 113 -22 230 -43z m1592 21 c0 -27 -10 -32 -239 -135
-131 -59 -240 -107 -242 -107 -5 0 11 173 16 178 2 2 106 23 232 47 125 23
229 43 231 44 1 1 2 -12 2 -27z m-1677 -275 c12 -263 60 -397 194 -552 82 -93
105 -138 143 -270 28 -98 35 -193 20 -264 l-13 -60 33 -38 c32 -35 97 -160 88
-168 -2 -2 -48 10 -103 27 -113 35 -113 35 -227 193 -105 144 -110 156 -152
326 -96 396 -104 496 -62 744 36 211 34 204 55 198 16 -4 19 -21 24 -136z
m1593 -47 c45 -259 39 -343 -57 -741 -45 -188 -60 -219 -193 -395 l-81 -108
-104 -33 c-58 -18 -106 -31 -109 -29 -9 9 46 113 87 164 34 43 40 56 31 72
-35 64 -17 223 42 387 25 69 42 98 94 157 36 39 80 94 99 121 66 96 104 243
112 440 4 104 8 133 22 143 22 17 25 9 57 -178z m-1737 -372 c17 -116 77 -391
107 -495 25 -86 66 -157 170 -296 l36 -47 -28 10 c-70 27 -192 98 -226 132
-96 96 -229 473 -232 658 l-1 75 45 23 c24 12 61 22 80 22 l37 0 12 -82z
m1912 71 c65 -22 72 -35 66 -119 -9 -132 -93 -417 -160 -545 -45 -85 -101
-137 -206 -190 -50 -25 -96 -45 -102 -45 -6 0 4 19 21 43 112 147 146 212 178
333 39 147 102 457 102 502 0 30 2 32 34 32 18 0 48 -5 67 -11z m-1229 -534
c56 -50 124 -108 151 -129 l47 -38 0 -159 0 -159 -108 0 -109 0 -13 43 c-17
59 -45 110 -81 151 -30 35 -30 36 -19 92 17 81 -3 225 -46 339 -9 22 -4 18
178 -140z m598 79 c-32 -111 -42 -197 -29 -269 l11 -62 -41 -54 c-23 -30 -50
-82 -62 -116 l-21 -63 -104 0 -104 0 0 163 0 163 48 37 c26 20 108 90 182 155
74 66 136 119 137 118 2 -1 -6 -34 -17 -72z m-1263 -336 c74 -76 234 -153 488
-235 l120 -38 280 0 280 0 145 49 c172 58 319 121 381 163 74 51 108 93 161
198 l50 100 -7 -100 c-13 -188 -43 -298 -102 -369 -69 -83 -386 -312 -532
-383 l-56 -28 -300 -3 c-360 -4 -360 -4 -544 113 -256 162 -401 287 -441 381
-24 54 -46 182 -54 304 l-5 85 48 -99 c27 -54 66 -116 88 -138z"/>
<path d="M1735 4395 c-93 -19 -199 -73 -203 -102 -9 -61 70 -168 153 -207 45
-22 359 -23 410 -2 81 34 162 144 153 207 -4 29 -57 61 -148 90 -86 27 -267
34 -365 14z m370 -64 c33 -12 63 -25 67 -29 5 -5 -27 -21 -69 -36 -90 -33
-246 -46 -330 -28 -67 15 -163 51 -163 62 0 8 77 34 155 54 11 3 79 3 150 2
101 -3 143 -9 190 -25z m-215 -145 c113 0 134 3 213 30 48 17 87 28 87 26 0
-22 -52 -78 -94 -102 -50 -29 -53 -30 -204 -30 -131 0 -158 3 -191 19 -36 19
-111 92 -111 110 0 5 39 -5 88 -22 79 -28 98 -31 212 -31z"/>
<path d="M1548 3325 c-56 -31 -41 -129 44 -283 83 -150 254 -352 300 -352 50
0 248 245 323 401 66 138 69 217 9 240 -38 14 -79 -2 -164 -66 -133 -99 -184
-105 -290 -32 -101 70 -163 107 -180 107 -8 -1 -27 -7 -42 -15z m75 -47 c12
-6 51 -34 86 -61 143 -109 211 -108 368 4 118 84 139 86 136 16 -3 -93 -136
-317 -263 -442 l-61 -60 -68 71 c-82 85 -158 195 -211 306 -70 143 -65 208 13
166z"/>
</g>
</svg>
